<svg width="520" height="420" viewBox="0 0 520 420" fill="none" xmlns="http://www.w3.org/2000/svg">
  <rect width="520" height="420" rx="42" fill="#FFFDF8"/>
  <g>
    <rect x="112" y="100" width="122" height="220" rx="28" fill="#F59DB5"/>
    <path d="M132 98C132 74.804 150.804 56 174 56C197.196 56 216 74.804 216 98V120H132V98Z" fill="#C28658"/>
    <rect x="146" y="84" width="56" height="24" rx="12" fill="#B07248"/>
    <rect x="134" y="138" width="78" height="92" rx="14" fill="#FFF2F6"/>
    <text x="173" y="190" text-anchor="middle" font-family="Georgia, serif" font-size="20" fill="#B8597B">splash</text>
    <ellipse cx="173" cy="320" rx="61" ry="14" fill="#E88BA7" opacity="0.35"/>
  </g>
  <g>
    <rect x="260" y="110" width="144" height="210" rx="34" fill="#52C4BE"/>
    <path d="M286 110C286 82.3858 308.386 60 336 60C363.614 60 386 82.3858 386 110V126H286V110Z" fill="#B48C63"/>
    <rect x="303" y="86" width="66" height="26" rx="13" fill="#9D734F"/>
    <rect x="286" y="140" width="92" height="84" rx="16" fill="#E8FFFB"/>
    <text x="332" y="188" text-anchor="middle" font-family="Georgia, serif" font-size="20" fill="#23837E">locao</text>
    <ellipse cx="332" cy="320" rx="71" ry="15" fill="#46ADA8" opacity="0.35"/>
  </g>
  <g fill="#F7A5BF">
    <path d="M418 294C426 286 441 290 441 305C441 290 456 286 464 294C473 304 466 319 441 334C416 319 409 304 418 294Z"/>
    <path d="M80 286C88 278 103 282 103 297C103 282 118 278 126 286C135 296 128 311 103 326C78 311 71 296 80 286Z"/>
  </g>
</svg>
