<svg width="520" height="520" viewBox="0 0 520 520" fill="none" xmlns="http://www.w3.org/2000/svg">
  <rect width="520" height="520" rx="48" fill="#FFFDF8"/>
  <g opacity="0.9">
    <path d="M124 148C124 128.118 140.118 112 160 112H187C206.882 112 223 128.118 223 148V370C223 395.405 202.405 416 177 416H170C144.595 416 124 395.405 124 370V148Z" fill="#F38BAA"/>
    <path d="M135 150C135 136.745 145.745 126 159 126H188C201.255 126 212 136.745 212 150V365C212 384.33 196.33 400 177 400H170C150.67 400 135 384.33 135 365V150Z" fill="#F7B0C1"/>
    <ellipse cx="174" cy="155" rx="30" ry="11" fill="#D56B90"/>
    <ellipse cx="174" cy="362" rx="45" ry="33" fill="#E67A9F"/>
    <ellipse cx="174" cy="365" rx="28" ry="22" fill="#FCE2EA"/>
    <ellipse cx="174" cy="154" rx="16" ry="7" fill="#4F2A24"/>
  </g>
  <g transform="rotate(-18 318 156)">
    <rect x="300" y="146" width="26" height="176" rx="13" fill="#D6A26C"/>
    <path d="M288 114C288 94.1177 304.118 78 324 78H332C351.882 78 368 94.1178 368 114V146H288V114Z" fill="#5E3329"/>
    <path d="M293 118C293 100.327 307.327 86 325 86H331C348.673 86 363 100.327 363 118V146H293V118Z" fill="#8D5A48"/>
  </g>
  <g transform="rotate(14 392 180)">
    <rect x="378" y="170" width="22" height="154" rx="11" fill="#F7A2B7"/>
    <path d="M366 142C366 122.118 382.118 106 402 106H408C427.882 106 444 122.118 444 142V170H366V142Z" fill="#2A324D"/>
    <path d="M372 146C372 129.431 385.431 116 402 116H408C424.569 116 438 129.431 438 146V170H372V146Z" fill="#3E4C74"/>
  </g>
  <g>
    <rect x="350" y="300" width="66" height="114" rx="12" fill="#FFB7CC"/>
    <rect x="362" y="316" width="42" height="60" rx="8" fill="#FFF2F6"/>
    <rect x="372" y="336" width="21" height="10" rx="5" fill="#F38BAA"/>
    <rect x="366" y="284" width="34" height="30" rx="10" fill="#FF90B1"/>
    <ellipse cx="383" cy="284" rx="17" ry="8" fill="#FF7BA2"/>
  </g>
  <g fill="#F06F9B">
    <path d="M112 96C121 86 138 91 138 108C138 91 155 86 164 96C175 108 166 126 138 144C110 126 101 108 112 96Z"/>
    <path d="M425 374C432 367 445 371 445 384C445 371 458 367 465 374C473 384 466 398 445 411C424 398 417 384 425 374Z"/>
    <path d="M452 332C457 327 466 330 466 339C466 330 475 327 480 332C486 339 481 349 466 359C451 349 446 339 452 332Z"/>
    <path d="M93 126C97 121 106 123 106 131C106 123 114 121 119 126C124 132 120 141 106 150C92 141 88 132 93 126Z"/>
  </g>
</svg>
